<?xml version="1.0" encoding="iso-8859-1"?>
<!-- Generator: Adobe Illustrator 19.0.0, SVG Export Plug-In . SVG Version: 6.00 Build 0)  -->
<svg version="1.1" id="Layer_1" xmlns="http://www.w3.org/2000/svg" xmlns:xlink="http://www.w3.org/1999/xlink" x="0px" y="0px"
	 viewBox="0 0 400 400" style="enable-background:new 0 0 400 400;" xml:space="preserve">
<g id="XMLID_107_">
	<polygon id="XMLID_108_" style="fill:#1E2E3B;" points="160,65 140,35 0,35 0,105 160,115 320,105 320,65 	"/>
	<rect id="XMLID_109_" y="105" style="fill:#78B9EB;" width="320" height="180"/>
	<polygon id="XMLID_110_" style="fill:#5A8BB0;" points="320,285 0,285 320,105 	"/>
	<g id="XMLID_138_">
		<circle id="XMLID_62_" style="fill:#EEEEEF;" cx="320" cy="285" r="80"/>
		<path id="XMLID_61_" style="fill:#DEDDE0;" d="M320,205c44.183,0,80,35.817,80,80s-35.817,80-80,80"/>
	</g>
	<g id="XMLID_169_">
		<polygon id="XMLID_59_" style="fill:#5A8BB0;" points="280,285 320,335 360,285 335,285 335,240 305,240 305,285 		"/>
		<polygon id="XMLID_58_" style="fill:#78B9EB;" points="280,285 320,335 320,240 305,240 305,285 		"/>
	</g>
</g>
<g>
</g>
<g>
</g>
<g>
</g>
<g>
</g>
<g>
</g>
<g>
</g>
<g>
</g>
<g>
</g>
<g>
</g>
<g>
</g>
<g>
</g>
<g>
</g>
<g>
</g>
<g>
</g>
<g>
</g>
</svg>
